<svg t="1641172952535" class="icon" viewBox="0 0 1479 1024" version="1.1" xmlns="http://www.w3.org/2000/svg" p-id="2639" width="200" height="200"><path d="M1448.163556 180.849778L638.179556 992.995556c-19.114667 19.171556-45.511111 31.004444-74.695112 31.004444-29.184 0-55.580444-11.832889-74.695111-31.004444L30.947556 533.959111A105.813333 105.813333 0 0 1 0 459.036444a105.813333 105.813333 0 0 1 105.642667-105.927111c29.184 0 55.580444 11.832889 74.695111 31.004445l383.146666 384.170666L1298.773333 31.004444c19.114667-19.171556 45.511111-31.004444 74.695111-31.004444A105.813333 105.813333 0 0 1 1479.111111 105.927111c0 29.240889-11.832889 55.751111-30.947555 74.922667z" fill="#ffffff" p-id="2640"></path></svg>